<svg xmlns="http://www.w3.org/2000/svg" width="690" height="669.103" viewBox="0 0 690 669.103">
  <g id="Login_Mesa_de_trabajo_1" data-name="Login_Mesa de trabajo 1" transform="translate(-13.44 -29.108)">
    <g id="Floor" transform="translate(13.44 299.837)">
      <ellipse id="Floor_4_" cx="345" cy="199.187" rx="345" ry="199.187" fill="#d87509" opacity="0.5"/>
    </g>
    <g id="Device" transform="translate(78.617 29.108)">
      <g id="Device_1_">
        <g id="XMLID_1341_" transform="translate(143.276 330.063)">
          <g id="XMLID_1346_" transform="translate(0.007)">
            <path id="XMLID_1347_" d="M244.243,404.062l51.158-29.58c5.273-3.044,7.91-7.034,7.91-11.025s.022-7.116.022-7.116l-53.079-29.93a11.256,11.256,0,0,1-5.093-8.821V254.515L155.8,306.149l0,63.073a11.256,11.256,0,0,0,5.093,8.821l45.153,26.018C216.6,410.152,233.7,410.151,244.243,404.062Z" transform="translate(-155.802 -254.515)" fill="#f6cd3c"/>
          </g>
          <g id="XMLID_1608_" transform="translate(0.007)" opacity="0.6">
            <path id="XMLID_1609_" d="M244.243,404.062l51.158-29.58c5.273-3.044,7.91-7.034,7.91-11.025s.022-7.116.022-7.116l-53.079-29.93a11.256,11.256,0,0,1-5.093-8.821V254.515L155.8,306.149l0,63.073a11.256,11.256,0,0,0,5.093,8.821l45.153,26.018C216.6,410.152,233.7,410.151,244.243,404.062Z" transform="translate(-155.802 -254.515)"/>
          </g>
          <path id="XMLID_1345_" d="M177.261,367.134v7.086l-16.377-9.437a11.265,11.265,0,0,1-5.087-8.821V292.894l17.024-9.821c.353,4.323.735,8.792,1.088,13.144l-11.937,6.91V352.4a11.189,11.189,0,0,0,5.087,8.821Z" transform="translate(-155.797 -241.256)" opacity="0.3"/>
          <path id="XMLID_1344_" d="M160.012,362.427a11.256,11.256,0,0,0,5.093,8.821L204.087,393.7c10.547,6.089,27.649,6.091,38.2,0l51.184-29.577c10.549-6.087,10.55-15.958,0-22.048l-39.007-22.47a11.256,11.256,0,0,1-5.093-8.821l0-49.284-89.357,51.634v49.285Z" transform="translate(-153.84 -251.268)" fill="#f6cd3c"/>
          <path id="XMLID_1607_" d="M160.012,362.427a11.256,11.256,0,0,0,5.093,8.821L204.087,393.7c10.547,6.089,27.649,6.091,38.2,0l51.184-29.577c10.549-6.087,10.55-15.958,0-22.048l-39.007-22.47a11.256,11.256,0,0,1-5.093-8.821l0-49.284-89.357,51.634v49.285Z" transform="translate(-153.84 -251.268)" opacity="0.3"/>
          <path id="XMLID_1343_" d="M264.836,325.608V325.6l-10.373-5.989a11.256,11.256,0,0,1-5.093-8.821V261.507l-89.359,51.634v49.287a11.256,11.256,0,0,0,5.093,8.821l10.193,5.885Z" transform="translate(-153.84 -251.269)" opacity="0.5"/>
          <path id="XMLID_1342_" d="M281.06,324.058v7.115c0,4-2.646,7.967-7.909,11.026l-51.167,29.563c-5.058,2.94-11.613,4.41-18.229,4.528V369.2a38.29,38.29,0,0,0,18.229-4.528l51.167-29.593C278.412,332.055,281.06,328.057,281.06,324.058Z" transform="translate(-133.53 -222.227)" fill="#f6cd3c"/>
          <path id="XMLID_1610_" d="M281.06,324.058v7.115c0,4-2.646,7.967-7.909,11.026l-51.167,29.563c-5.058,2.94-11.613,4.41-18.229,4.528V369.2a38.29,38.29,0,0,0,18.229-4.528l51.167-29.593C278.412,332.055,281.06,328.057,281.06,324.058Z" transform="translate(-133.53 -222.227)" opacity="0.5"/>
        </g>
        <path id="XMLID_1340_" d="M63.924,531.588c3.3,1.9,8.822,1.8,12.338-.228l345.57-199.51a14.067,14.067,0,0,0,6.364-11.025V41.27c0-4.059-2.674-8.894-5.971-10.8s-8.821-1.8-12.337.228L64.323,230.211a14.069,14.069,0,0,0-6.365,11.026l0,279.553C57.953,524.85,60.625,529.683,63.924,531.588Z" transform="translate(-57.95 -29.108)" fill="#f6cd3c"/>
        <path id="XMLID_1339_" d="M72.475,528.94,418.043,329.431a14.069,14.069,0,0,0,6.365-11.026V38.85c0-4.059-2.85-5.7-6.365-3.675L72.48,234.685a14.069,14.069,0,0,0-6.365,11.026l0,279.553C66.11,529.323,68.961,530.969,72.475,528.94Z" transform="translate(-54.163 -26.695)" fill="#f6cd3c"/>
        <path id="XMLID_1338_" d="M72.475,528.94,418.043,329.431a14.069,14.069,0,0,0,6.365-11.026V38.85c0-4.059-2.85-5.7-6.365-3.675L72.48,234.685a14.069,14.069,0,0,0-6.365,11.026l0,279.553C66.11,529.323,68.961,530.969,72.475,528.94Z" transform="translate(-54.163 -26.695)" opacity="0.5"/>
        <path id="XMLID_1337_" d="M75.326,388.64c-3.527,1.558-8.408,1.5-11.407-.236-3.293-1.911-5.968-6.733-5.968-10.82V352.131l11.937,6.91v25.454C69.888,388.2,72.24,389.875,75.326,388.64Z" transform="translate(-57.951 120.87)" fill="#f6cd3c"/>
        <path id="XMLID_1606_" d="M75.326,388.64c-3.527,1.558-8.408,1.5-11.407-.236-3.293-1.911-5.968-6.733-5.968-10.82V352.131l11.937,6.91v25.454C69.888,388.2,72.24,389.875,75.326,388.64Z" transform="translate(-57.951 120.87)" opacity="0.5"/>
        <path id="XMLID_1336_" d="M66.1,422.457l.01,25.445c0,4.059,2.851,5.7,6.365,3.675L418.047,252.068a14.069,14.069,0,0,0,6.365-11.026v-25.5Z" transform="translate(-54.166 57.453)" fill="#f6cd3c"/>
        <path id="XMLID_1335_" d="M66.11,422.4v25.5c0,4.059,2.851,5.7,6.365,3.675L418.043,252.068a14.069,14.069,0,0,0,6.365-11.026v-25.5Z" transform="translate(-54.163 57.453)" opacity="0.3"/>
        <path id="XMLID_1334_" d="M74.264,468.465l0-225a8.446,8.446,0,0,1,3.819-6.616L404.854,48.193c2.11-1.218,3.819-.23,3.819,2.205l.01,225a8.446,8.446,0,0,1-3.819,6.616L78.084,470.671C75.974,471.889,74.264,470.9,74.264,468.465Z" transform="translate(-50.377 -20.489)" fill="#27debf"/>
        <path id="XMLID_1333_" d="M74.264,468.465l0-225a8.446,8.446,0,0,1,3.819-6.616L404.854,48.193c2.11-1.218,3.819-.23,3.819,2.205l.01,225a8.446,8.446,0,0,1-3.819,6.616L78.084,470.671C75.974,471.889,74.264,470.9,74.264,468.465Z" transform="translate(-50.377 -20.489)" fill="#263238"/>
        <path id="XMLID_1332_" d="M190.346,291.985a13.2,13.2,0,0,0-5.973,10.345c0,3.809,2.675,5.352,5.974,3.447a13.2,13.2,0,0,0,5.973-10.345C196.319,291.624,193.645,290.081,190.346,291.985Z" transform="translate(0.746 92.566)" fill="#27debf"/>
        <path id="XMLID_1331_" d="M71.77,176.559a13.51,13.51,0,0,0-1.882,6.292v260.9l-11.937-6.91.007-260.872a13.164,13.164,0,0,1,1.874-6.291Z" transform="translate(-57.951 36.159)" opacity="0.7"/>
        <path id="XMLID_1544_" d="M427.537,40.216c-.451-3.281-3.1-4.471-6.307-2.634L75.673,237.1a13.107,13.107,0,0,0-4.5,4.727l-11.938-6.894a13.1,13.1,0,0,1,4.5-4.727L409.292,30.7c3.523-2.032,9.032-2.138,12.344-.226C424.647,32.208,427.13,36.408,427.537,40.216Z" transform="translate(-57.356 -29.108)" opacity="0.3"/>
      </g>
    </g>
    <g id="Window_1_" transform="translate(133.656 74.275)">
      <g id="Window" transform="translate(0 0)">
        <g id="Window_2_">
          <g id="Window_3_">
            <g id="XMLID_1920_" transform="translate(0.003)">
              <path id="Path_1261" data-name="Path 1261" d="M429.329,60.3a3.132,3.132,0,0,0-3.246.258L100,248.841a9.856,9.856,0,0,0-4.462,7.724l0,223.626a4.342,4.342,0,0,0,1.88,3.876c.729.392,4.561,2.621,5.7,3.233a2.556,2.556,0,0,0,2.584-.149L431.776,298.788a9.84,9.84,0,0,0,4.465-7.72V66.359a3.088,3.088,0,0,0-1.382-2.93C434.058,63.01,430.151,60.787,429.329,60.3Z" transform="translate(-95.54 -59.954)" fill="#e8bb2d"/>
            </g>
            <g id="XMLID_1917_" transform="translate(0 3.22)">
              <g id="XMLID_1919_" transform="translate(5.706)">
                <path id="Path_1262" data-name="Path 1262" d="M102.193,485.6c-1.246,0-2.258-1.538-2.258-3.426V258.545a9.206,9.206,0,0,1,4.094-7.093L430.106,63.164a3.353,3.353,0,0,1,1.625-.511c1.088,0,1.737.917,1.737,2.453V289.817a9.179,9.179,0,0,1-4.1,7.084L103.3,485.264A2.232,2.232,0,0,1,102.193,485.6Z" transform="translate(-99.203 -61.921)" fill="#fafafa"/>
                <path id="Path_1263" data-name="Path 1263" d="M431.965,63.617h0c.873,0,1,1.078,1,1.721V290.049a8.365,8.365,0,0,1-3.732,6.452L103.169,484.862a1.529,1.529,0,0,1-.744.236c-.814,0-1.527-1.259-1.527-2.694V258.777a8.38,8.38,0,0,1,3.728-6.458L430.7,64.03a2.582,2.582,0,0,1,1.261-.413m0-1.464a4.054,4.054,0,0,0-1.993.609L103.9,251.052a9.861,9.861,0,0,0-4.46,7.726V482.4c0,2.249,1.249,4.159,2.992,4.159a2.945,2.945,0,0,0,1.473-.431l326.07-188.363a9.84,9.84,0,0,0,4.465-7.72V65.338c0-2.018-1.006-3.185-2.469-3.185Z" transform="translate(-99.435 -62.153)" fill="#e0e0e0"/>
              </g>
              <path id="XMLID_1918_" d="M97.418,417.132c.483.256,3.952,2.235,5.472,3.1a4.547,4.547,0,0,1-1.641-3.746V207.457l-5.711-3.342V413.259A4.34,4.34,0,0,0,97.418,417.132Z" transform="translate(-95.538 3.759)" fill="#f0f0f0"/>
            </g>
            <g id="XMLID_1913_" transform="translate(0 3.221)">
              <path id="XMLID_1916_" d="M434.431,65.3c-.018-2.817-2-3.958-4.457-2.542L103.9,251.051a9.861,9.861,0,0,0-4.46,7.726l0,14.592L434.431,79.944Z" transform="translate(-93.729 -62.154)" fill="#f6cd3c"/>
              <path id="XMLID_1914_" d="M95.538,210.139l0-14.5a9.206,9.206,0,0,1,1.357-4.462l5.681,3.268a9.022,9.022,0,0,0-1.333,4.432v14.589Z" transform="translate(-95.538 -2.25)" opacity="0.15"/>
            </g>
          </g>
        </g>
        <g id="XMLID_985_" transform="translate(73.379 173.424)">
          <g id="XMLID_639_" transform="translate(0 0)">
            <path id="XMLID_645_" d="M344.209,179.67,148.91,292.426a7.207,7.207,0,0,0-3.26,5.645v55.989a7.189,7.189,0,0,0,3.262,5.64l5.706,3.283a7.219,7.219,0,0,0,6.521,0L356.412,250.238a7.212,7.212,0,0,0,3.261-5.645l.023-56a7.184,7.184,0,0,0-3.261-5.64l-5.7-3.283A7.227,7.227,0,0,0,344.209,179.67Z" transform="translate(-145.65 -178.156)" fill="#f6cd3c"/>
            <path id="XMLID_717_" d="M359.864,187.561c-.225-1.685-1.6-2.3-3.236-1.354L161.336,298.959a6.558,6.558,0,0,0-2.3,2.438l-12.224-7.061a6.662,6.662,0,0,1,2.289-2.409L344.4,179.175a7.207,7.207,0,0,1,6.519-.015l5.7,3.281A7.28,7.28,0,0,1,359.864,187.561Z" transform="translate(-145.112 -178.389)" fill="#fff" opacity="0.5"/>
            <path id="XMLID_730_" d="M160.585,326.476a7.268,7.268,0,0,1-5.961-.256l-5.7-3.281a7.192,7.192,0,0,1-3.267-5.645V261.309a6.75,6.75,0,0,1,.963-3.236l12.224,7.061a6.533,6.533,0,0,0-.964,3.207v56C157.874,326.205,159.049,327.063,160.585,326.476Z" transform="translate(-145.649 -141.392)" fill="#263238"/>
            <path id="XMLID_644_" d="M157.26,297.127,352.56,184.37c1.8-1.04,3.258-.2,3.258,1.882l-.023,56a7.212,7.212,0,0,1-3.261,5.645L157.261,360.642c-1.8,1.04-3.259.2-3.259-1.882V302.772A7.206,7.206,0,0,1,157.26,297.127Z" transform="translate(-141.773 -175.818)" fill="#f6cd3c"/>
            <path id="XMLID_647_" d="M292.131,199.839,148.6,282.7a6.687,6.687,0,0,0-2.289,2.409l12.224,7.061a6.546,6.546,0,0,1,2.3-2.438l143.5-82.848Z" transform="translate(-145.344 -168.43)" fill="#455a64"/>
            <path id="XMLID_652_" d="M300.762,204.652l-143.5,82.85a7.206,7.206,0,0,0-3.26,5.645v55.989c0,2.078,1.458,2.921,3.26,1.882l143.5-82.85Z" transform="translate(-141.773 -166.195)" fill="#37474f"/>
          </g>
          <g id="XMLID_640_" transform="translate(43.028 70.932)">
            <path id="XMLID_1663_" d="M180.591,270.385l74.045-42.752c3.071-1.773,5.558-.514,5.558,2.813s-2.489,7.459-5.56,9.232L180.6,282.426c-3.071,1.773-5.561.514-5.561-2.81S177.52,272.159,180.591,270.385Z" transform="translate(-175.035 -226.83)" fill="#f6cd3c"/>
          </g>
          <g id="XMLID_646_" transform="translate(57.507 100.686)">
            <path id="XMLID_986_" d="M191.173,266.246a.154.154,0,0,1,.217.038.506.506,0,0,1,.092.332v8.339a13.251,13.251,0,0,1-.208,2.4,9.649,9.649,0,0,1-.618,2.106,7.081,7.081,0,0,1-1.028,1.724,5.223,5.223,0,0,1-1.431,1.22,2.625,2.625,0,0,1-1.436.435,1.423,1.423,0,0,1-1.024-.538,3.282,3.282,0,0,1-.614-1.4,10.2,10.2,0,0,1-.2-2.161V270.4a1.1,1.1,0,0,1,.092-.438.562.562,0,0,1,.217-.288l.928-.536a.154.154,0,0,1,.218.037.515.515,0,0,1,.091.332v8.237a5.9,5.9,0,0,0,.126,1.35,1.67,1.67,0,0,0,.353.761.691.691,0,0,0,.551.234,1.552,1.552,0,0,0,.7-.231,2.9,2.9,0,0,0,.7-.58,3.31,3.31,0,0,0,.556-.87,5.426,5.426,0,0,0,.36-1.173,7.77,7.77,0,0,0,.13-1.5V267.5a1.123,1.123,0,0,1,.091-.438.577.577,0,0,1,.22-.29Z" transform="translate(-184.923 -238.296)" fill="#fafafa"/>
            <path id="XMLID_988_" d="M194.249,273.992a.5.5,0,0,0-.081-.319.361.361,0,0,0-.28-.1,2.314,2.314,0,0,0-.532.063c-.223.047-.5.1-.846.164a1.725,1.725,0,0,1-.835-.026,1.039,1.039,0,0,1-.532-.406,1.9,1.9,0,0,1-.281-.764,6.6,6.6,0,0,1-.079-1.081,5.683,5.683,0,0,1,.16-1.294,6.452,6.452,0,0,1,.463-1.314,5.946,5.946,0,0,1,.738-1.169,3.606,3.606,0,0,1,1-.858,2.354,2.354,0,0,1,1-.353,1.153,1.153,0,0,1,1.229.723,2.34,2.34,0,0,1,.195.852.95.95,0,0,1-.086.436.592.592,0,0,1-.224.29l-.88.508c-.113.066-.2.079-.258.038s-.119-.091-.187-.146a.5.5,0,0,0-.275-.094,1.036,1.036,0,0,0-.514.185,2.1,2.1,0,0,0-.606.532,1.264,1.264,0,0,0-.265.8.729.729,0,0,0,.064.34.281.281,0,0,0,.239.135,1.936,1.936,0,0,0,.493-.029c.209-.032.48-.085.817-.155a1.306,1.306,0,0,1,1.435.379,3.121,3.121,0,0,1,.419,1.8,5.256,5.256,0,0,1-.171,1.289,6.5,6.5,0,0,1-.5,1.325,5.84,5.84,0,0,1-.8,1.195,4.125,4.125,0,0,1-1.069.89,2.335,2.335,0,0,1-1.07.363,1.256,1.256,0,0,1-.782-.209,1.379,1.379,0,0,1-.492-.631,2.451,2.451,0,0,1-.185-.889.95.95,0,0,1,.086-.436.615.615,0,0,1,.223-.293l.882-.508c.114-.064.2-.067.258-.006s.122.132.193.214a.492.492,0,0,0,.3.151,1.038,1.038,0,0,0,.584-.2,2.782,2.782,0,0,0,.354-.246,2.457,2.457,0,0,0,.338-.327,2,2,0,0,0,.258-.392A1,1,0,0,0,194.249,273.992Z" transform="translate(-182.256 -238.152)" fill="#fafafa"/>
            <path id="XMLID_990_" d="M195.15,271.249a13.093,13.093,0,0,1,.195-2.256,11.23,11.23,0,0,1,.561-2.073,7.53,7.53,0,0,1,.886-1.681,3.768,3.768,0,0,1,1.161-1.1,1.619,1.619,0,0,1,1.161-.256,1.522,1.522,0,0,1,.886.609,3.653,3.653,0,0,1,.567,1.319,8.1,8.1,0,0,1,.2,1.868v.914a1.088,1.088,0,0,1-.092.438.567.567,0,0,1-.218.29l-3.82,2.207a2.224,2.224,0,0,0,.11.759.9.9,0,0,0,.291.432.606.606,0,0,0,.423.122,1.135,1.135,0,0,0,.492-.163,2.267,2.267,0,0,0,.595-.474,2.769,2.769,0,0,0,.378-.553,2.893,2.893,0,0,1,.206-.343.686.686,0,0,1,.218-.185l.915-.529a.166.166,0,0,1,.223.032.456.456,0,0,1,.085.338,3.611,3.611,0,0,1-.176.835,6.482,6.482,0,0,1-.5,1.161,7.218,7.218,0,0,1-.817,1.2,4.168,4.168,0,0,1-1.126.955,1.724,1.724,0,0,1-1.161.277,1.386,1.386,0,0,1-.886-.618,3.9,3.9,0,0,1-.561-1.416A9.891,9.891,0,0,1,195.15,271.249Zm2.8-4.67a1.933,1.933,0,0,0-.567.5,3.329,3.329,0,0,0-.4.675,4.227,4.227,0,0,0-.246.753,5.023,5.023,0,0,0-.11.7l2.586-1.492a4.791,4.791,0,0,0-.085-.592,1.211,1.211,0,0,0-.206-.491.58.58,0,0,0-.378-.228A.969.969,0,0,0,197.954,266.58Z" transform="translate(-180.175 -239.392)" fill="#fafafa"/>
            <path id="XMLID_1008_" d="M203.009,263.853a2.306,2.306,0,0,0-.99,1.11,5.061,5.061,0,0,0-.3,1.934v5.288a1.122,1.122,0,0,1-.091.438.565.565,0,0,1-.22.288l-.867.5a.157.157,0,0,1-.218-.038.5.5,0,0,1-.092-.332v-9.477a1.1,1.1,0,0,1,.092-.438.581.581,0,0,1,.218-.29l.867-.5a.156.156,0,0,1,.22.037.512.512,0,0,1,.091.332v.469a6.145,6.145,0,0,1,.636-1.12,2.829,2.829,0,0,1,.886-.776l.514-.3a.157.157,0,0,1,.218.038.514.514,0,0,1,.091.332V262.7a1.13,1.13,0,0,1-.091.439.571.571,0,0,1-.218.288Z" transform="translate(-177.817 -240.74)" fill="#fafafa"/>
            <path id="XMLID_1013_" d="M211.274,265.415a.156.156,0,0,1,.218.038.515.515,0,0,1,.091.332v1.445a1.123,1.123,0,0,1-.091.438.578.578,0,0,1-.218.288l-5.011,2.893a.156.156,0,0,1-.218-.038.512.512,0,0,1-.091-.332V257.343a1.128,1.128,0,0,1,.091-.438.57.57,0,0,1,.218-.288l.927-.534a.156.156,0,0,1,.218.038.5.5,0,0,1,.092.332V267.6Z" transform="translate(-175.158 -243.016)" fill="#fafafa"/>
            <path id="XMLID_1017_" d="M213.573,255.151a1.912,1.912,0,0,1,1.139-.312,1.358,1.358,0,0,1,.88.447,2.8,2.8,0,0,1,.595,1.081,5.825,5.825,0,0,1,.259,1.6c.007.117.012.271.012.461v1.129c0,.182,0,.337-.012.463a10.55,10.55,0,0,1-.264,1.9,9.144,9.144,0,0,1-.59,1.754,7.021,7.021,0,0,1-.88,1.454,4.061,4.061,0,0,1-1.139,1,1.916,1.916,0,0,1-1.138.312,1.374,1.374,0,0,1-.879-.438,2.677,2.677,0,0,1-.59-1.072,6.4,6.4,0,0,1-.265-1.6c-.007-.117-.012-.268-.016-.447s-.006-.365-.006-.555,0-.382.006-.574.009-.35.016-.476a9.859,9.859,0,0,1,.258-1.9,9.756,9.756,0,0,1,.6-1.767,6.861,6.861,0,0,1,.879-1.463A4.051,4.051,0,0,1,213.573,255.151Zm1.387,3.776a3.208,3.208,0,0,0-.168-.952.965.965,0,0,0-.327-.473.554.554,0,0,0-.422-.091,1.435,1.435,0,0,0-.47.179,2.347,2.347,0,0,0-.467.363,2.4,2.4,0,0,0-.423.58,3.85,3.85,0,0,0-.327.849,5.74,5.74,0,0,0-.165,1.142c-.007.114-.013.253-.016.417s-.007.335-.007.511,0,.347.007.514.009.3.016.388a3.287,3.287,0,0,0,.165.949.967.967,0,0,0,.327.473.552.552,0,0,0,.423.091,1.442,1.442,0,0,0,.467-.179,2.361,2.361,0,0,0,.47-.362,2.4,2.4,0,0,0,.422-.58,3.854,3.854,0,0,0,.327-.849,5.742,5.742,0,0,0,.168-1.144c.006-.1.01-.233.01-.4v-1.025C214.97,259.163,214.966,259.031,214.96,258.927Z" transform="translate(-172.964 -243.583)" fill="#fafafa"/>
            <path id="XMLID_1020_" d="M218.589,265.38a2.046,2.046,0,0,0,.493-.416,3.046,3.046,0,0,0,.455-.681,4.461,4.461,0,0,0,.47-2.021v-.753c-.062.157-.141.335-.242.534a4.742,4.742,0,0,1-.36.606,4.555,4.555,0,0,1-.491.589,2.874,2.874,0,0,1-.636.488,1.341,1.341,0,0,1-1.035.2,1.415,1.415,0,0,1-.789-.6,3.708,3.708,0,0,1-.514-1.227,7.762,7.762,0,0,1-.214-1.678c-.007-.2-.01-.433-.01-.706s0-.508.01-.717a11.5,11.5,0,0,1,.214-1.923,10.767,10.767,0,0,1,.514-1.822,6.994,6.994,0,0,1,.789-1.514,3.277,3.277,0,0,1,1.035-.993,1.794,1.794,0,0,1,.636-.246,1.2,1.2,0,0,1,.491.02.914.914,0,0,1,.36.19,1.5,1.5,0,0,1,.242.258V252.5a1.1,1.1,0,0,1,.091-.438.563.563,0,0,1,.218-.289l.868-.5a.157.157,0,0,1,.218.038.506.506,0,0,1,.092.332v9.538a10.024,10.024,0,0,1-.773,4.157,5.253,5.253,0,0,1-2.135,2.482,2.317,2.317,0,0,1-1.081.351,1.448,1.448,0,0,1-.862-.234,1.718,1.718,0,0,1-.584-.7,2.668,2.668,0,0,1-.24-1.051.911.911,0,0,1,.086-.435.592.592,0,0,1,.223-.293l.778-.448a.2.2,0,0,1,.274.035,1.976,1.976,0,0,1,.195.245.671.671,0,0,0,.406.334A1.178,1.178,0,0,0,218.589,265.38Zm-1.372-7.1a9.27,9.27,0,0,0,0,1.141,2.509,2.509,0,0,0,.458,1.634.737.737,0,0,0,.947.032,2.483,2.483,0,0,0,.944-1.135,5.106,5.106,0,0,0,.441-1.942c.015-.212.023-.473.023-.786s-.009-.564-.023-.759a2.191,2.191,0,0,0-.441-1.414.707.707,0,0,0-.944-.064,2.478,2.478,0,0,0-.947,1.129A5.729,5.729,0,0,0,217.217,258.282Z" transform="translate(-170.625 -245.248)" fill="#fafafa"/>
            <path id="XMLID_1023_" d="M222.386,247.179a.153.153,0,0,1,.217.035.513.513,0,0,1,.092.334v1.586a1.1,1.1,0,0,1-.092.439.588.588,0,0,1-.217.29l-.983.567a.157.157,0,0,1-.218-.038.511.511,0,0,1-.092-.334v-1.586a1.111,1.111,0,0,1,.092-.439.566.566,0,0,1,.218-.287Zm.253,13.742a1.087,1.087,0,0,1-.092.438.575.575,0,0,1-.218.29l-.867.5a.156.156,0,0,1-.218-.038.5.5,0,0,1-.092-.332V252.3a1.088,1.088,0,0,1,.092-.438.575.575,0,0,1,.218-.29l.867-.5a.156.156,0,0,1,.218.038.5.5,0,0,1,.092.332Z" transform="translate(-168.129 -247.15)" fill="#fafafa"/>
            <path id="XMLID_1026_" d="M229.2,256.4a1.147,1.147,0,0,1-.089.438.579.579,0,0,1-.218.289l-.87.5a.157.157,0,0,1-.218-.038.5.5,0,0,1-.091-.332v-5.166a3.64,3.64,0,0,0-.321-1.767c-.214-.365-.54-.42-.984-.164a2.357,2.357,0,0,0-.955,1.283,6.13,6.13,0,0,0-.349,2.154v5.166a1.122,1.122,0,0,1-.091.438.571.571,0,0,1-.218.288l-.868.5a.157.157,0,0,1-.218-.038.506.506,0,0,1-.092-.332v-9.477a1.1,1.1,0,0,1,.092-.438.582.582,0,0,1,.218-.29l.868-.5a.154.154,0,0,1,.218.037.515.515,0,0,1,.091.332v.469a7.1,7.1,0,0,1,.7-1.277,2.925,2.925,0,0,1,.95-.893,1.626,1.626,0,0,1,1.166-.288,1.2,1.2,0,0,1,.754.6,3.586,3.586,0,0,1,.407,1.281,11.921,11.921,0,0,1,.119,1.751Z" transform="translate(-166.957 -247.093)" fill="#fafafa"/>
          </g>
          <g id="XMLID_641_" transform="translate(178.811 33.725)">
            <path id="XMLID_716_" d="M282.569,235.072l-14.224,8.212,2.2-19.95c-1.7-.9-2.785-3.113-2.785-6.291,0-5.665,3.444-12.246,7.693-14.7s7.692.151,7.692,5.816a19.33,19.33,0,0,1-2.785,9.508Z" transform="translate(-267.764 -201.421)" fill="#455a64"/>
            <path id="XMLID_715_" d="M282.385,226.693l-12.518-7.226-1.706,15.438Z" transform="translate(-267.58 -193.042)" fill="#37474f"/>
            <path id="XMLID_643_" d="M275.1,202.344c-2.781,1.6-5.208,4.98-6.56,8.707l11.468,6.622v0a19.326,19.326,0,0,0,2.785-9.508C282.791,202.5,279.347,199.891,275.1,202.344Z" transform="translate(-267.404 -201.421)" fill="#37474f"/>
          </g>
        </g>
        <g id="XMLID_979_" transform="translate(144.841 139.875)">
          <g id="XMLID_1560_">
            <g id="XMLID_1570_">
              <path id="XMLID_2351_" d="M240.348,157.274c-4.864-2.816-11.586-2.416-19.014,1.873-14.846,8.573-26.882,29.421-26.879,46.565,0,8.6,3.034,14.634,7.931,17.428,1.274.728,8.188,4.75,9.473,5.493,4.864,2.811,11.583,2.41,19.007-1.876,14.845-8.572,26.879-29.419,26.879-46.565,0-8.568-3.008-14.584-7.868-17.393" transform="translate(-194.452 -155.477)" fill="#f6cd3c"/>
              <path id="XMLID_2399_" d="M227.84,162.919c-14.845,8.576-26.882,29.421-26.879,46.563S213,233.576,227.844,225s26.895-29.419,26.879-46.565S242.671,154.348,227.84,162.919Z" transform="translate(-191.431 -153.726)" fill="#f6cd3c"/>
              <path id="XMLID_999_" d="M238.866,190.869v1.956c-3.828,6.534-9.067,12.222-14.842,15.548s-11.013,3.7-14.842,1.571v-4.053c0-7.827,5.314-17.034,12.094-20.959l3.9-2.246c3.465-2,6.822-2.256,9.464-.728C237.338,183.512,238.866,186.752,238.866,190.869Z" transform="translate(-187.614 -143.64)" fill="#27debf"/>
              <path id="XMLID_1014_" d="M239.1,157.273l9.528,5.522c-4.867-2.817-11.588-2.419-19.012,1.871-9.721,5.619-18.238,16.5-22.959,28.153l-9.528-5.528c4.721-11.654,13.233-22.534,22.959-28.148C227.52,154.859,234.241,154.458,239.1,157.273Z" transform="translate(-193.209 -155.477)" fill="#f6cd3c"/>
              <path id="XMLID_1016_" d="M211.5,212.494c-1.678-.969-7.939-4.615-9.117-5.286-4.9-2.792-7.931-8.824-7.931-17.425l9.528,5.528C203.987,203.666,206.851,209.6,211.5,212.494Z" transform="translate(-194.453 -139.549)" opacity="0.15"/>
              <g id="XMLID_995_" transform="translate(0.001 31.816)">
                <path id="Path_1264" data-name="Path 1264" d="M198.377,177.2l9.528,5.528a49.881,49.881,0,0,0-3.923,18.412v0l-9.528-5.528A49.956,49.956,0,0,1,198.377,177.2Z" transform="translate(-194.454 -177.205)" fill="#e8bb2d"/>
              </g>
            </g>
          </g>
          <g id="XMLID_738_" transform="translate(21.568 17.174)">
            <g id="XMLID_980_" transform="translate(6.068)">
              <path id="XMLID_983_" d="M218.72,188.168a5.136,5.136,0,0,1-2.586-.674c-1.811-1.047-2.808-3.119-2.808-5.832A16.735,16.735,0,0,1,221,168.367v0c2.341-1.357,4.629-1.526,6.453-.48s2.808,3.119,2.808,5.832a16.742,16.742,0,0,1-7.673,13.294A7.838,7.838,0,0,1,218.72,188.168Z" transform="translate(-213.326 -167.205)" fill="#fff"/>
            </g>
            <g id="XMLID_764_" transform="translate(0 20.163)">
              <path id="XMLID_765_" d="M234.642,181.96c-2.642-1.529-6-1.273-9.464.728l-3.9,2.246c-6.78,3.924-12.094,13.13-12.094,20.958v4.053c3.828,2.128,9.057,1.764,14.842-1.571s11.013-9.014,14.842-15.548v-1.956C238.866,186.752,237.338,183.511,234.642,181.96Z" transform="translate(-209.182 -180.975)" fill="#fff"/>
            </g>
          </g>
        </g>
      </g>
    </g>
    <g id="Plants" transform="translate(626.561 452.951)">
      <g id="Plants_10_">
        <g id="XMLID_860_">
          <g id="XMLID_864_">
            <path id="XMLID_866_" d="M432.154,371.4S434.1,354.3,442.6,341.03s20.2-21.556,31.1-22.418,19.715,9.171,8.045,16.062-32.4,13.923-41.943,39.694Z" transform="translate(-432.154 -318.559)" fill="#009959"/>
            <path id="XMLID_865_" d="M432.154,371.4S434.1,354.3,442.6,341.03s20.2-21.556,31.1-22.418,19.715,9.171,8.045,16.062-32.4,13.923-41.943,39.694Z" transform="translate(-432.154 -318.559)" opacity="0.1"/>
          </g>
          <g id="XMLID_862_" transform="translate(2.718 5.117)">
            <path id="XMLID_863_" d="M434.49,365.34a.551.551,0,0,1-.116-.034.581.581,0,0,1-.321-.759c11.509-28.344,33.42-40.18,43.4-42.478a.582.582,0,0,1,.262,1.135c-9.774,2.251-31.251,13.882-42.58,41.781A.582.582,0,0,1,434.49,365.34Z" transform="translate(-434.01 -322.054)" fill="#fff"/>
          </g>
        </g>
        <g id="XMLID_259_" transform="translate(3.284 34.06)">
          <g id="XMLID_857_" transform="translate(0.781)">
            <g id="XMLID_858_">
              <path id="XMLID_859_" d="M492.322,356.5c-.987,2.226-3.418,3.385-5.68,4.3s-4.715,1.889-5.936,3.993c-2.461,4.252,1.58,10.23-1.063,14.371a7.615,7.615,0,0,1-5.2,3.014,50.814,50.814,0,0,1-5.109.457,20.4,20.4,0,0,1-2.429-.189c-2.344-.34-4.888-.449-7.036.75-3.38,1.9-4.418,6.166-6.469,9.456a16.044,16.044,0,0,1-11.383,7.14c-1.518.2-4.343.474-5.891-.388a2.725,2.725,0,0,1-.319-.2c-.01,0-.019-.015-.028-.028-.212-.24-.479-.545-.595-.71a.288.288,0,0,1-.06-.1c-.6-2.205.379-4.5.417-6.777,0-.143.006-.277,0-.413-.094-2.647-.168-5.28-.231-7.92q-.185-7.288-.145-14.592c.034-3.159-.347-6.617.99-9.593,1.48-3.273,5.16-3.344,6.551-6.556.558-1.28.854-2.652,1.393-3.946a11.313,11.313,0,0,1,9.635-6.726c6.424-.326,12.19,4.875,18.607,4.4a48.331,48.331,0,0,0,4.919-.937c5.2-.974,11.218.507,14.144,4.911A6.735,6.735,0,0,1,492.322,356.5Z" transform="translate(-434.93 -341.82)" fill="#009959"/>
            </g>
          </g>
          <g id="XMLID_737_" transform="translate(0 8.166)">
            <path id="XMLID_855_" d="M434.847,385.647c-.015,0-.029-.006-.044-.01a.549.549,0,0,1-.388-.671c8.877-33.3,43.967-38.117,52.177-37.524a.548.548,0,1,1-.079,1.092c-8.03-.58-42.353,4.129-51.039,36.714A.546.546,0,0,1,434.847,385.647Z" transform="translate(-434.396 -347.397)" fill="#fff"/>
          </g>
          <g id="XMLID_733_" transform="translate(14.641 21.216)">
            <path id="XMLID_736_" d="M469.193,364.633a.536.536,0,0,1-.29-.154,29.166,29.166,0,0,0-23.88-6.727.548.548,0,0,1-.16-1.085,30.286,30.286,0,0,1,24.82,7.04.549.549,0,0,1-.491.925Z" transform="translate(-444.395 -356.309)" fill="#fff"/>
          </g>
        </g>
      </g>
    </g>
    <g id="Character" transform="translate(436.357 242.824)">
      <g id="Character_3_">
        <g id="XMLID_729_" transform="translate(61.045)">
          <g id="XMLID_1087_">
            <path id="XMLID_1144_" d="M422.171,231.832c-6.15,10.4-12.067,19.431-16.221,23.761-7.888,3.67-26.423,9.31-33.676,10.255a5.4,5.4,0,0,1-3.64-.857c-2.851-1.868-5.056-2.172-8.062-3.213-2.353-.814-3.35-1.939-3.793-1.511a2.676,2.676,0,0,0,.246,3.73,19.469,19.469,0,0,0,3.725,2.787,22.052,22.052,0,0,1-9.817.168c-6.277-1.647-9.241,1.371-5,8.187,1.52,2.441,7.506,6.349,19.636,5.293a107.672,107.672,0,0,0,12.889-1.524c11.635-2.483,24.568-4.889,32.519-7.264a20.619,20.619,0,0,0,7.723-5.352c13.375-15.246,17.8-26.108,23.667-35.981l-.507-16.132C432.386,213.884,427.316,223.129,422.171,231.832Z" transform="translate(-343.948 -156.9)" fill="#eec9a3"/>
            <path id="XMLID_1143_" d="M422.245,214.027s-8.278-1.76-14.5,6.2c-6.51,8.33-18.021,28.337-18.021,28.337s3.776,10.032,13.937,11.681L419.986,238.2S427.716,222.933,422.245,214.027Z" transform="translate(-322.694 -157.043)" fill="#e0e0e0"/>
            <g id="XMLID_1136_" transform="translate(61.897 117.452)">
              <rect id="XMLID_1142_" width="10.641" height="18.974" transform="translate(62.306 164.391)" fill="#eec9a3"/>
              <path id="XMLID_1141_" d="M414.38,373.212l-10.635.381-.533-20.08,11.168-.381Z" transform="translate(-378.329 -209.833)" fill="#eec9a3"/>
              <path id="XMLID_1140_" d="M454.876,255.383c0,10.584-1.558,95.762-1.558,95.762.247,3.046,2.989,8.661,2.4,20.358-.807,15.891-1.882,57.646-1.882,57.646a13.508,13.508,0,0,1-11.849.243s-8.628-58.515-10.534-74.26c-1.663-13.742-5.926-59.333-5.926-59.333l-5.768,53.8a65.52,65.52,0,0,1,1.319,17.614c-.5,7.283-3.92,45.216-3.92,45.216s-5.009,3.541-12.287.98c0,0-6.053-57.127-6.176-63.81-.141-7.619,3.539-94.328,3.539-94.328Z" transform="translate(-380.43 -255.27)" fill="#37474f"/>
              <path id="XMLID_1139_" d="M434.108,377.263v-1.584c-1.018.461-3.384,9.864-7.607,13.874-3.356,3.189-7.935,6.872-9.1,10.427-1.211,3.7,6.377,5.739,9.512,5.16,3.643-.672,9.96-3.344,11.545-5.822s2.328-6.132,3.615-7.947,4.258-3.842,4.955-5.944c.382-1.154-.072-3.683-.609-5.818-.493-1.959-1.028-4.115-1.671-3.93,0,.239,0,1.208,0,1.208-.773.892-2.91,1.776-5.32,1.873C437.872,378.821,434.095,378.5,434.108,377.263Z" transform="translate(-371.802 -199.369)" fill="#263238"/>
              <path id="XMLID_1138_" d="M411.522,365c-.553.021-1,.832-2.221,2.207a23.326,23.326,0,0,1-6.26,4.692c-3.984,2.078-11.732,5.273-15.238,6.919-2.191,1.028-2.088,3.784.176,5.352s7.73,2.7,14.294,1.169c3.576-.833,8.231-4.273,11.177-4.087s8.459.142,10.634-1.42,1.3-4.9.69-7.761c-.671-3.128-1.51-8-2.5-7.79v1.078c-1.28,2.018-7.882,2.839-10.692,1.353Z" transform="translate(-386.219 -204.66)" fill="#263238"/>
              <path id="XMLID_1137_" d="M421.714,285.753A38.937,38.937,0,0,1,406.9,276.9s2.86,5.576,11.363,10.765l-1.819,48.045Z" transform="translate(-376.619 -245.226)" fill="#263238"/>
            </g>
            <g id="XMLID_1122_" transform="translate(82.359 56.983)">
              <path id="XMLID_1124_" d="M448.219,215.563s8.749,2.025,8.158,17.889l-1.841,25.271.051,37.924c-7.825,8.866-42.517,8.218-54.394-.71,0,0,1.346-44.881,2.148-62.151.57-12.278,3.4-18.459,15.461-19.812l14.839.653Z" transform="translate(-400.193 -213.974)" fill="#f6cd3c"/>
            </g>
            <g id="XMLID_1094_" transform="translate(83.998)">
              <path id="XMLID_1116_" d="M435.619,197.767c0,9.114-7.093,16.5-15.842,16.5s-13.928-7.591-15.842-16.5c-3.5-16.3,7.093-16.5,15.842-16.5S435.619,188.653,435.619,197.767Z" transform="translate(-400.413 -172.178)" fill="#263238"/>
              <g id="XMLID_1102_">
                <path id="XMLID_1115_" d="M432.9,197.094s-2.429,11.89-3.4,13.843a5.186,5.186,0,0,1-2.989,2.508l.17-8.364Z" transform="translate(-389.613 -164.829)" fill="#263238"/>
                <path id="XMLID_1108_" d="M429.277,185.468s1.742-.436,3.593,2.456c1.587,2.479,1.948,8.048-.543,14.579l-4.577.548Z" transform="translate(-389.037 -170.237)" fill="#263238"/>
                <path id="XMLID_1330_" d="M429.943,188.013l5.613.1A2.647,2.647,0,0,0,433,185.149,3.109,3.109,0,0,0,429.943,188.013Z" transform="translate(-388.019 -170.375)" fill="#263238"/>
                <path id="XMLID_1286_" d="M430.637,187.763l4.159-4a2.685,2.685,0,0,0-3.937-.154A3.057,3.057,0,0,0,430.637,187.763Z" transform="translate(-388.026 -171.454)" fill="#263238"/>
                <path id="XMLID_1107_" d="M437.159,205.372c.918.571,2.227-1.265,3.359-2.5s4.686-2.4,6.529,1.647c1.879,4.122-1.3,8.042-3.939,9.355-4.722,2.347-6.223-1.066-6.223-1.066l-.382,18.834c-6.655,10.294-21.73,9.924-16.311-.5l.015-5.733a30.419,30.419,0,0,1-6.758.362c-3.687-.593-6.007-3.623-7.125-7.78-1.8-6.676-2.479-12.067-.955-25.2,1.671-14.391,17.741-14.54,26.419-8.852S437.159,205.372,437.159,205.372Z" transform="translate(-399.819 -172.556)" fill="#eec9a3"/>
                <path id="XMLID_1106_" d="M418.618,193.055c3.839-.384,7.635-1.164,11.482-1.448a7.438,7.438,0,0,1,2.491.12c2.948.8,2.567,4.223,3.035,6.617.805,4.122,1.475,11.11,3.025,11.14.461.009,2.217-3.024,3.359-4.107.74-.7.865-2.214,1.025-3.15.293-1.709.451-3.441.581-5.167.111-1.461.258-2.949.252-4.416a20.29,20.29,0,0,0-.384-4.929,8.571,8.571,0,0,0-2.053-3.69c-.1-.11-.195-.218-.293-.325a19.439,19.439,0,0,0-6.872-4.629,41.411,41.411,0,0,0-11.627-2.527,118.421,118.421,0,0,1-11.849-1.428,1.246,1.246,0,0,0-.687-.012,1.1,1.1,0,0,0-.556.88,4.884,4.884,0,0,0,1.987,4.825c-2.653.211-5.7-1.171-8.256-1.864a1.684,1.684,0,0,0-1.3,0,1.306,1.306,0,0,0-.513.745,4.835,4.835,0,0,0-.072,2.12,12.2,12.2,0,0,0,2.286,5.824,14.336,14.336,0,0,0,7.915,5.173A22.948,22.948,0,0,0,418.618,193.055Z" transform="translate(-401.312 -175.059)" fill="#263238"/>
                <path id="XMLID_1103_" d="M415.235,213.509s8.229-1.726,11.107-3.32a9.693,9.693,0,0,0,3.977-4.1,13.764,13.764,0,0,1-2.259,4.834c-2.1,2.8-12.824,4.864-12.824,4.864Z" transform="translate(-394.848 -160.652)" fill="#e0af86"/>
              </g>
            </g>
          </g>
        </g>
        <g id="XMLID_931_" transform="translate(0 68.703)">
          <g id="XMLID_975_" transform="translate(22.045 37.596)">
            <path id="XMLID_861_" d="M317.314,257.351l9.172-5.295,3.636-4.4-9.172,5.3-3.636,4.4" transform="translate(-317.314 -247.653)" fill="#a83135"/>
            <path id="XMLID_934_" d="M317.314,257.351l9.172-5.295,3.636-4.4-9.172,5.3-3.636,4.4" transform="translate(-317.314 -247.653)" opacity="0.4"/>
          </g>
          <g id="XMLID_936_" transform="translate(47.007 49.625)">
            <path id="XMLID_974_" d="M334.361,267.948l9.172-5.295,7.667-6.786-9.174,5.295-7.666,6.786" transform="translate(-334.361 -255.868)" fill="#a83135"/>
            <path id="XMLID_935_" d="M334.361,267.948l9.172-5.295,7.667-6.786-9.174,5.295-7.666,6.786" transform="translate(-334.361 -255.868)" opacity="0.4"/>
          </g>
          <path id="XMLID_971_" d="M427.257,301.983a19.567,19.567,0,0,1,3.792,9.982A19.554,19.554,0,0,1,427.257,301.983Zm21.325.277c-3.085-21.016-14.376-41.8-27.835-49.572-6.458-3.734-12.435-3.869-17.222-1.069-1.4.813-6.594,3.809-8.641,4.983a5.215,5.215,0,0,0-.482.286,12.586,12.586,0,0,0-1.114.707,15.481,15.481,0,0,0-1.987,1.641c-.091.075-.182.18-.286.271-.271.271-.542.573-.8.873-.316.362-.633.738-.918,1.129a21.279,21.279,0,0,0-1.685,2.589c-.256.451-.513.933-.753,1.431l-75.435-43.55-9.168,5.283V233.1l.782.451.723.422v1.234l-1.505.873v3.4l11.079,23.454,10.959,6.337,3.643-4.41,9.664,5.781,5.554,9.514,6.112,3.523,7.663-6.788,9.408,5.434,3.161,13.037,15.762,9.093a86.758,86.758,0,0,0,2.981,9.8c.105.331.226.662.362,1.024,5.239,13.775,13.578,25.561,22.972,30.995a24.344,24.344,0,0,0,3.538,1.7,17.847,17.847,0,0,0,1.972.662,14.608,14.608,0,0,0,1.762.391,15.153,15.153,0,0,0,5.585-.015l.767-.18a6.567,6.567,0,0,0,1.069-.316l.813-.316a6.26,6.26,0,0,0,.843-.391,7.646,7.646,0,0,0,.783-.407c.135-.075.271-.151.391-.225a.573.573,0,0,0,.182-.105c2.092-1.2,7.256-4.185,8.655-4.983,6.97-4.034,11.486-14.256,11.486-28.708A75.559,75.559,0,0,0,448.582,302.259Z" transform="translate(-302.259 -221.978)" fill="#a83135"/>
          <path id="XMLID_1041_" d="M424.567,318.034c-3.618-2.09-6.553-8.3-6.553-13.871s2.934-8.395,6.553-6.305,6.553,8.3,6.553,13.871S428.185,320.123,424.567,318.034Zm14.846-12.165c-3.085-21-14.376-41.79-27.835-49.556-6.232-3.6-12-3.869-16.694-1.385a5.2,5.2,0,0,0-.482.286,12.586,12.586,0,0,0-1.114.707,15.483,15.483,0,0,0-1.987,1.641c-.091.075-.182.18-.286.271-.271.271-.542.573-.8.873-.316.362-.633.738-.918,1.129a21.277,21.277,0,0,0-1.685,2.589c-.256.451-.513.933-.753,1.431a36.218,36.218,0,0,0-2.905,8.912l-81.7-47.178v5.841l.782.451.723.422v1.234l-1.505.873v3.4l11.079,23.454L324.3,267.6l3.643-4.41,9.664,5.781,5.554,9.514,6.112,3.523,7.663-6.789,9.408,5.434L369.5,293.69l15.762,9.093a86.767,86.767,0,0,0,2.981,9.8c.105.331.225.662.362,1.024,5.239,13.775,13.578,25.561,22.972,30.995a24.339,24.339,0,0,0,3.538,1.7,17.83,17.83,0,0,0,1.972.662,14.614,14.614,0,0,0,1.762.391,15.153,15.153,0,0,0,5.585-.015l.767-.18a6.559,6.559,0,0,0,1.069-.316l.813-.316a6.266,6.266,0,0,0,.843-.391,7.622,7.622,0,0,0,.783-.407c.135-.075.271-.151.391-.225a.571.571,0,0,0,.182-.105c6.683-4.214,10.975-14.286,10.975-28.391A78.159,78.159,0,0,0,439.413,305.868Z" transform="translate(-302.259 -220.302)" fill="#a83135"/>
          <path id="XMLID_1044_" d="M394.417,289.026c0,5.57-2.936,8.4-6.548,6.308-3.629-2.092-6.563-8.3-6.563-13.864s2.936-8.4,6.563-6.307a9.261,9.261,0,0,1,2.68,2.454,19.672,19.672,0,0,0,3.794,9.981A11.5,11.5,0,0,1,394.417,289.026Z" transform="translate(-265.558 -197.604)" opacity="0.4"/>
          <path id="XMLID_1047_" d="M420.054,304.6c0,14.451-4.516,24.673-11.486,28.708-1.4.8-6.563,3.778-8.655,4.983C406.6,334.076,410.888,324,410.888,309.9a77.744,77.744,0,0,0-.843-11.139c-3.085-21-14.376-41.79-27.835-49.556-6.232-3.6-12-3.869-16.694-1.385,2.047-1.174,7.241-4.17,8.641-4.983,4.787-2.8,10.764-2.665,17.222,1.069,13.458,7.768,24.748,28.557,27.835,49.572A75.279,75.279,0,0,1,420.054,304.6Z" transform="translate(-272.889 -213.193)" fill="#fff" opacity="0.4"/>
          <g id="XMLID_722_" transform="translate(127.023 89.799)">
            <path id="XMLID_727_" d="M399.981,290.21c0,14.106-4.29,24.177-10.975,28.391,2.092-1.2,7.256-4.185,8.655-4.983,6.97-4.034,11.486-14.256,11.486-28.708,0-.533-.019-1.07-.031-1.606l-9.169,5.293C399.96,289.136,399.981,289.675,399.981,290.21Z" transform="translate(-389.006 -283.304)" fill="#a83135"/>
            <path id="XMLID_653_" d="M399.981,290.21c0,14.106-4.29,24.177-10.975,28.391,2.092-1.2,7.256-4.185,8.655-4.983,6.97-4.034,11.486-14.256,11.486-28.708,0-.533-.019-1.07-.031-1.606l-9.169,5.293C399.96,289.136,399.981,289.675,399.981,290.21Z" transform="translate(-389.006 -283.304)" opacity="0.1"/>
          </g>
          <g id="XMLID_724_" transform="translate(0.002 11.998)">
            <path id="XMLID_1050_" d="M384.287,276.658v2.981l-82.027-47.36,1.505-.873v-1.234Z" transform="translate(-302.26 -230.172)" opacity="0.15"/>
            <path id="XMLID_1046_" d="M384.287,277.505v1.747l-82.027-47.36,1.505-.873v-.015Z" transform="translate(-302.26 -229.785)" opacity="0.15"/>
          </g>
          <ellipse id="XMLID_1030_" cx="21.658" cy="40.529" rx="21.658" ry="40.529" transform="translate(76.719 47.78) rotate(-17.061)" fill="none" stroke="#000" stroke-miterlimit="10" stroke-width="1" opacity="0.15"/>
          <path id="XMLID_1045_" d="M386.861,265.529a36.22,36.22,0,0,0-2.905,8.912l-81.7-47.178,9.168-5.283Z" transform="translate(-302.258 -221.978)" fill="#fff" opacity="0.4"/>
        </g>
        <g id="XMLID_867_" transform="translate(124.678 58.571)">
          <path id="XMLID_1093_" d="M453.447,272.938c4.284-8.1,9.168-26.288,11.6-35.467,3.454-13.037-2.136-21.24-8.483-21.569-3.98.606-17.047,48.159-17.047,48.159-1.448,1.158-21.338,11.237-27.728,13.77a4.975,4.975,0,0,1-3.538.013c-3.069-1.12-5.159-.908-8.162-1.21-2.352-.236-3.542-1.072-3.839-.568a2.688,2.688,0,0,0,1.154,3.466,18.789,18.789,0,0,0,4.1,1.789,24.99,24.99,0,0,1-7.929,1.078c-6.143-.136-8.354,2.533-3.589,8.759,2.986,3.9,7.786,5.131,18.6,1.393,3.115-1.078,7.335-3.172,11.262-4.6,8.121-2.951,10.206-3.27,16.44-5.368C445.276,279.556,451.544,276.533,453.447,272.938Z" transform="translate(-387.404 -214.668)" fill="#eec9a3"/>
          <path id="XMLID_335_" d="M437.189,215.059c3.737.511,7.36,1.356,9.533,4.375s3.984,7.278,1.811,18.974a180.651,180.651,0,0,1-6.643,24.123s-8.692,3.715-17.939-5.709l6.349-24.569S431.386,216.292,437.189,215.059Z" transform="translate(-370.436 -215.059)" fill="#e0e0e0"/>
        </g>
      </g>
    </g>
  </g>
</svg>
